<svg fill="#000000" xmlns="http://www.w3.org/2000/svg"  viewBox="0 0 480 480" width="60px" height="60px"><path d="M200.789,206c-116.621,0-152.321-0.249-164.534,0.118c-4.517,0.136-8.255-3.477-8.255-7.996V123	c0-15.94,11.72-29.2,27-31.61l0-33.118C55,47.244,71,47.497,71,58v33h73V59l-19.728,0c-11.028,0-10.775-16-0.272-16h20V26l-10.728,0	c-11.028,0-10.775-16-0.272-16l37.728,0c11.028,0,10.775,16,0.272,16h-11v17l19.728,0c11.028,0,10.775,16,0.272,16h-20v32h7.76	c16.63,0,30.64,12.99,31.91,29.56l0.215,2.833c0.353,4.644-3.32,8.607-7.977,8.607H122c-13.255,0-24,10.745-24,24v16	c0,13.255,10.745,24,24,24h78.796C207.367,196,207.44,206,200.789,206z M203.554,171.392l-1.22-16	c-0.318-4.17-3.794-7.392-7.977-7.392H122c-4.418,0-8,3.582-8,8v16c0,4.418,3.582,8,8,8h73.577	C200.235,180,203.908,176.036,203.554,171.392z M240.368,254.642l-1.048-6.082C236.67,233.17,223.4,222,207.78,222H36	c-4.418,0-8,3.582-8,8v26c0,4.418,3.582,8,8,8h196.484C237.445,264,241.21,259.531,240.368,254.642z M472,280H24	c-13.255,0-24,10.745-24,24v19.33c0,4.418,3.582,8,8,8h461.087c3.926,0,7.261-2.855,7.902-6.729	c2.279-13.778,3.02-26.226,3.012-36.602C480,283.58,476.42,280,472,280z M468.82,357.84C454.06,402.674,414.938,470,353.3,470H24	c-13.25,0-24-10.75-24-24v-90.67c0-4.42,3.58-8,8-8h453.22C466.67,347.33,470.53,352.66,468.82,357.84z M63,395h-3	c-10.57,0-10.586,16,0,16h3C73.57,411,73.586,395,63,395z M156,395h-49c-10.57,0-10.586,16,0,16h49C166.57,411,166.586,395,156,395z"/></svg>