<?xml version="1.0"?><svg fill="#000000" xmlns="http://www.w3.org/2000/svg"  viewBox="0 0 30 30" width="30px" height="30px">    <path d="M 6.984375 1.9863281 A 1.0001 1.0001 0 0 0 6 3 L 6 5 L 3 5 L 3 13 L 10 13 L 10 8.9863281 L 12 7 L 12 5 L 8 5 L 8 3 A 1.0001 1.0001 0 0 0 6.984375 1.9863281 z M 22.441406 12 C 21.580406 12 20.816922 12.550188 20.544922 13.367188 L 20 15 L 1 15 L 1 18 L 2.5292969 22.056641 C 3.1422969 21.959641 3.7777969 22.033406 4.3417969 22.316406 C 4.7227969 22.501406 5.97 23 7 23 C 8.03 23 9.277875 22.502547 9.671875 22.310547 C 10.511875 21.901547 11.505797 21.898406 12.341797 22.316406 C 12.722797 22.501406 13.97 23 15 23 C 16.03 23 17.277875 22.502547 17.671875 22.310547 C 18.511875 21.901547 19.505797 21.898406 20.341797 22.316406 C 20.722797 22.501406 21.97 23 23 23 C 24.03 23 25.277875 22.502547 25.671875 22.310547 C 25.822875 22.236547 25.983578 22.191531 26.142578 22.144531 L 29 14 L 29 12 L 22.441406 12 z M 24 14 C 24.552 14 25 14.448 25 15 C 25 15.552 24.552 16 24 16 C 23.448 16 23 15.552 23 15 C 23 14.448 23.448 14 24 14 z M 2.9648438 23.994141 A 1.0001 1.0001 0 0 0 2.5527344 25.894531 C 2.5527344 25.894531 4.6666667 27 7 27 C 8.9465696 27 10.458804 26.333203 11 26.078125 C 11.541196 26.333203 13.05343 27 15 27 C 16.94657 27 18.458804 26.333203 19 26.078125 C 19.541196 26.333203 21.05343 27 23 27 C 25.333333 27 27.447266 25.894531 27.447266 25.894531 A 1.0001163 1.0001163 0 1 0 26.552734 24.105469 C 26.552734 24.105469 24.666667 25 23 25 C 21.333333 25 19.447266 24.105469 19.447266 24.105469 A 1.0001 1.0001 0 0 0 18.552734 24.105469 C 18.552734 24.105469 16.666667 25 15 25 C 13.333333 25 11.447266 24.105469 11.447266 24.105469 A 1.0001 1.0001 0 0 0 10.552734 24.105469 C 10.552734 24.105469 8.6666667 25 7 25 C 5.3333333 25 3.4472656 24.105469 3.4472656 24.105469 A 1.0001 1.0001 0 0 0 2.9648438 23.994141 z"/></svg>