<svg fill="#000000" xmlns="http://www.w3.org/2000/svg"  viewBox="0 0 50 50" width="50px" height="50px"><path d="M 25 0 C 11.027344 0 2 7.613281 2 19.398438 C 2 25.035156 3.773438 28.925781 4.796875 30.707031 C 4.886719 30.53125 4.980469 30.355469 5.070313 30.183594 C 5.929688 28.5625 6.8125 26.882813 7.003906 24.902344 C 7.058594 24.355469 7.550781 23.949219 8.09375 24.003906 C 8.644531 24.058594 9.046875 24.546875 8.992188 25.097656 C 8.765625 27.46875 7.742188 29.40625 6.839844 31.113281 C 5.730469 33.222656 5.074219 34.601563 5.535156 36.035156 C 5.558594 36.089844 5.570313 36.144531 5.597656 36.195313 C 5.605469 36.21875 5.617188 36.246094 5.628906 36.269531 C 5.878906 36.800781 6.203125 37.328125 6.632813 37.839844 C 6.636719 37.84375 6.640625 37.84375 6.640625 37.847656 C 6.644531 37.851563 6.644531 37.855469 6.648438 37.859375 C 8.503906 39.96875 10.222656 40.550781 11.476563 40.972656 C 12.769531 41.410156 13 41.488281 13 42.800781 C 13 49.144531 19.066406 50 25 50 C 30.933594 50 37 49.144531 37 42.800781 C 37 41.488281 37.230469 41.410156 38.523438 40.972656 C 39.777344 40.550781 41.496094 39.972656 43.351563 37.859375 C 43.351563 37.859375 43.355469 37.851563 43.355469 37.851563 C 43.359375 37.847656 43.363281 37.84375 43.367188 37.839844 C 43.796875 37.328125 44.125 36.800781 44.371094 36.269531 C 44.382813 36.246094 44.394531 36.222656 44.402344 36.199219 C 44.425781 36.144531 44.441406 36.09375 44.464844 36.039063 C 44.925781 34.601563 44.269531 33.222656 43.15625 31.117188 C 42.257813 29.40625 41.234375 27.46875 41.003906 25.097656 C 40.949219 24.546875 41.355469 24.058594 41.902344 24.007813 C 42.460938 23.953125 42.941406 24.355469 42.996094 24.90625 C 43.1875 26.882813 44.070313 28.5625 44.929688 30.183594 C 45.019531 30.359375 45.113281 30.535156 45.203125 30.707031 C 46.226563 28.925781 48 25.035156 48 19.398438 C 48 7.613281 38.972656 0 25 0 Z M 14.300781 34.199219 C 12.699219 33.597656 11.101563 31.5 12.601563 26.800781 C 13.601563 23.699219 16.601563 22.300781 19.800781 23.300781 C 22.601563 24.199219 23.5 27.699219 22.699219 30.199219 C 21.5 33.800781 18.101563 35.5 14.300781 34.199219 Z M 26.800781 41 C 25.800781 41 25 39.199219 25 39.199219 C 25 39.199219 24.199219 41 23.199219 41 C 22.601563 41 22 40.5 22 39.601563 C 22 37.800781 25 34 25 34 C 25 34 28 37.800781 28 39.601563 C 28 40.5 27.398438 41 26.800781 41 Z M 35.699219 34.199219 C 31.898438 35.5 28.5 33.800781 27.300781 30.199219 C 26.5 27.699219 27.402344 24.199219 30.199219 23.300781 C 33.398438 22.300781 36.398438 23.699219 37.398438 26.800781 C 38.898438 31.5 37.300781 33.601563 35.699219 34.199219 Z"/></svg>