<svg fill="#000000" xmlns="http://www.w3.org/2000/svg"  viewBox="0 0 480 480" width="60px" height="60px"><path d="M186.5,398c0-4.418,3.582-8,8-8h62.122c2.899,0,5.644-1.094,7.728-3.08c3.198-3.048,8.264-2.927,11.31,0.271	c3.049,3.198,2.928,8.262-0.271,11.311c-5.065,4.829-11.719,7.491-18.737,7.499C255.707,406,195.591,406,194.5,406	C190.082,406,186.5,402.418,186.5,398z M276.441,420.291c-3.65-2.485-8.627-1.545-11.116,2.108c-1.962,2.881-5.21,4.601-8.688,4.601	H188.5c-4.418,0-8,3.582-8,8s3.582,8,8,8h68.138c8.775,0,16.967-4.334,21.912-11.593	C281.037,427.755,280.093,422.779,276.441,420.291z M250.343,457.776c-3.592-2.577-8.588-1.754-11.164,1.834	c-1.973,2.749-5.166,4.39-8.541,4.39H129.991c-8.937,0-17.687-3.097-24.638-8.72C95.563,447.361,83.238,443,70.646,443H8.5	c-4.418,0-8,3.582-8,8s3.582,8,8,8h62.146c8.94,0,17.693,3.097,24.644,8.72c9.79,7.919,22.113,12.28,34.701,12.28h100.647	c8.517,0,16.568-4.135,21.539-11.06C254.753,465.35,253.932,460.352,250.343,457.776z M8.5,331h55.382	c24.957,0,37.356-13.605,50.658-25.412c3.304-2.933,3.605-7.989,0.672-11.294c-2.932-3.304-7.989-3.606-11.293-0.673	C90.761,305.301,82.32,315,63.882,315H8.5c-4.418,0-8,3.582-8,8S4.082,331,8.5,331z M469.118,19.933	C433.34,31.09,399.06,34.024,367.234,28.654c-43.611-7.36-71.585-30.898-129.521-17.638c-4.307,0.986-6.999,5.276-6.013,9.583	c0.985,4.307,5.274,6.999,9.583,6.013c53.199-12.177,77.026,10.012,123.288,17.818c31.211,5.267,64.44,3.181,98.928-6.193v173.383	c-33.749,9.753-66.111,12.122-96.266,7.033c-37.633-6.351-55.804-21.066-94.604-21.459c-23.465-0.238-47.006,5.224-70.131,16.216	V29.5C202.5,13.234,189.266,0,173,0s-29.5,13.234-29.5,29.5V287c0,4.418,3.582,8,8,8h36c13.217,0,24.397,8.887,27.878,21H168.5	c-4.418,0-8,3.582-8,8s3.582,8,8,8h88.301c5.621,0,10.397,4.177,10.874,9.51c0.538,6.026-4.014,11.49-10.634,11.49H194.5	c-4.418,0-8,3.582-8,8s3.582,8,8,8h62.541c16.066,0,27.939-13.612,26.57-28.915C282.403,326.579,270.627,316,256.801,316h-25.027	c-3.787-21.008-22.192-37-44.273-37h-28V29.5c0-7.444,6.056-13.5,13.5-13.5s13.5,6.056,13.5,13.5v197.042	c0,5.195,4.922,9.071,10.028,7.731c4.605-1.206,33.522-21.494,75.94-21.079c43.611,0.442,65.976,24.07,126.434,24.069	c24.137,0,49.234-4.027,74.979-12.056c3.342-1.042,5.618-4.136,5.618-7.637v-190C479.5,22.178,474.265,18.329,469.118,19.933z"/></svg>